<?xml version="1.0" encoding="UTF-8"?>
<svg id="Layer_1" data-name="Layer 1" xmlns="http://www.w3.org/2000/svg" xmlns:xlink="http://www.w3.org/1999/xlink" viewBox="0 0 1920 1920">
  <defs>
    <style>
      .cls-1 {
        fill: url(#linear-gradient-2);
      }

      .cls-2 {
        fill: url(#linear-gradient-4);
      }

      .cls-3 {
        fill: #136bee;
      }

      .cls-4 {
        fill: url(#linear-gradient-3);
      }

      .cls-5 {
        fill: url(#linear-gradient);
      }
    </style>
    <linearGradient id="linear-gradient" x1="1676.85" y1="1317.31" x2="1789.67" y2="1317.31" gradientUnits="userSpaceOnUse">
      <stop offset="0" stop-color="#136bee"/>
      <stop offset=".06" stop-color="#1266e3"/>
      <stop offset=".18" stop-color="#0f59c6"/>
      <stop offset=".33" stop-color="#0c4497"/>
      <stop offset=".5" stop-color="#062757"/>
      <stop offset=".7" stop-color="#000205"/>
      <stop offset=".72" stop-color="#000"/>
    </linearGradient>
    <linearGradient id="linear-gradient-2" x1="569.68" y1="1097.16" x2="1211.68" y2="371.16" gradientUnits="userSpaceOnUse">
      <stop offset="0" stop-color="#136bee"/>
      <stop offset=".06" stop-color="#1266e3"/>
      <stop offset=".18" stop-color="#0f59c6"/>
      <stop offset=".33" stop-color="#0c4497"/>
      <stop offset=".5" stop-color="#062757"/>
      <stop offset=".7" stop-color="#000205"/>
      <stop offset=".72" stop-color="#000"/>
    </linearGradient>
    <linearGradient id="linear-gradient-3" x1="1677.07" y1="1433.56" x2="1789.89" y2="1433.56" xlink:href="#linear-gradient"/>
    <linearGradient id="linear-gradient-4" x1="1676.81" y1="1377.89" x2="1789.63" y2="1377.89" xlink:href="#linear-gradient"/>
  </defs>
  <path d="M548.06,1389.46l-.2-27.49,84.57-.07.94,42.03-.91,43.66-99.42-.64c-16.7-.11-32.91-8.82-43.44-20.04-17.2-18.31-23.95-41.31-19.71-65.66,5.83-33.49,33.91-58.07,68.24-58.07h89.47s.39,27.92.39,27.92l-90.68,1.05c-22.82.26-38.28,21.71-38.72,41.84-.47,21.33,14.67,41.58,37.62,44.41,15.16,1.87,61.58,1.7,65.27.04,1-.45,2.22-4.27,2.19-5.53l-.54-23.49-55.08.05Z"/>
  <path d="M306.1,1339.71c9.42,16.76,11.64,37.21,6.86,55.28-9.02,34.13-40.35,53.1-74.78,52.93l-88.44-.43v-144.22s102.21.31,102.21.31c33.07.76,54.14,36.14,54.14,36.14ZM265.88,1339.07c-5.37-3.68-12.92-7.72-19.94-7.74l-66.85-.2-.12,87.99,54.56.69c15.48.19,29.86-2.74,39.91-13.9,17.2-19.1,15.74-53.51-7.56-66.83Z"/>
  <path d="M1472.15,1447.68v-28.42s97.42.15,97.42.15c7.37.01,14.66-6.92,14.98-13.91.41-8.81-7.71-16.01-16.6-16.04l-64.2-.26c-7.95-.03-26.78-9.77-33.09-21.19-7.99-14.46-7.91-33.68,1.58-47.84,7.74-11.55,22.3-16.98,36.07-16.98l93.87.02.04,28.05-93.71.07c-9.05,0-12.99,9.87-12.45,16.32.64,7.69,6.63,14.12,15.4,14.15l62.72.26c9.88.04,20.36,4.59,27.66,11.21,17.63,15.99,19.01,44.83,2.14,61.82-10.12,10.18-25.29,12.47-38.9,12.49l-92.92.1Z"/>
  <polygon points="1100.76 1447.6 1064.37 1373.98 1046.4 1339.72 992.49 1447.22 958.16 1447 1005.53 1355.21 1032 1303.12 1062.18 1303.36 1097.09 1372.53 1116.27 1409.7 1135.31 1447.14 1100.76 1447.6"/>
  <polygon class="cls-3" points="614.23 1590.47 597.29 1556.2 588.92 1540.26 563.83 1590.29 547.85 1590.19 569.9 1547.47 582.22 1523.22 596.27 1523.33 612.52 1555.53 621.44 1572.83 630.31 1590.26 614.23 1590.47"/>
  <polygon points="872.46 1447.46 843.53 1447.58 843.54 1331.24 784.93 1331.13 784.81 1303.22 932.57 1303.14 932.34 1331.16 872.5 1331.25 872.46 1447.46"/>
  <path d="M1243.87,1419.08h69.2s.14,28.51.14,28.51l-122.83.05-3.43-1.63c-.88-.42-.07-2.69.28-4.16l.18-138.65,29.18.27.11,114.97,27.16.64Z"/>
  <polygon points="1401.79 1447.44 1371.01 1447.54 1371.05 1303.18 1401.75 1303.17 1401.79 1447.44"/>
  <polygon points="408.72 1447.57 378.48 1447.72 378.53 1303.17 408.63 1303.42 408.72 1447.57"/>
  <polygon points="725.78 1328.25 726 1447.21 695.43 1447.64 695.35 1303.31 725.7 1303.2 725.78 1328.25"/>
  <polygon class="cls-5" points="1789.67 1331.31 1676.88 1331.5 1676.85 1303.13 1789.46 1303.17 1789.67 1331.31"/>
  <path class="cls-3" d="M1634.8,1566.08l-35.43.68-53.56-.3-46.86.39-20.73-1.15c-1.23-.07-4.15-1.73-4.47-2.79-.41-1.33.31-3.84,1.26-5.75l89.88-.09c8.53-2.07,16.6-.72,25.22-.68l45.31.24,54.65,1.42c1.29.03,5.27,1.75,4.55,2.81l-3,4.45-56.81.77Z"/>
  <path class="cls-3" d="M1070.14,1588.12l-19.18-25.2-16.39-19.53.19,27.47-1.08,17.99-9.38-.25v-64.64c10.13-3.18,12.52,4.14,17.17,10.04l27.68,35.16.48-44.3c2.7-.91,7.76-1.21,10.44-.65l.82,57.42c.04,2.67-.73,6.99-2.45,8.13s-7.01.06-8.29-1.63Z"/>
  <path class="cls-3" d="M432.13,1566.38l-66.05-.06-106.22-.71c-1.57-1.04-3.63-2.61-4.55-3.58-1.1-1.17,3-4.79,4.72-4.79l207.58-.22c3.2,0,6.15,1.49,6.33,3.59.22,2.47-2.06,5.08-4.4,5.12l-37.41.65Z"/>
  <path class="cls-1" d="M668.49,1032.72l108.62-191.8,41.5-73.46,77.28-138.21c11.42-20.42,31.27-33.95,53.08-41.56,29.55-10.32,62.26-5.22,88.75,10.31,9.65,5.66,16.57,12.99,23.71,20.9,7.46,8.27,12.48,16.74,17.83,26.53l29.71,54.34,15.45,27.39,28.62,51.01,49.22,88.24,27.25,49.18,8.84-9.58,14.61-16.31c25.75-28.76,42.92-63.85,55.87-100.44,32.56-92-4.76-208.81-71.31-277.56-22.43-23.17-47.37-42.66-76.4-57-34.76-17.17-72.33-31.36-112.29-31.46l-412.51-1.07c-24.36-5.61-41.49-25.93-42.23-51.34-1.79-28.53,19.05-57.27,50.12-57.26l401.91.11c72.14.02,141.81,23.93,202.19,61.96,49.88,31.43,91.09,74.19,121.18,124.47,22.44,37.51,36.22,77.17,46.05,119.41,7.08,30.39,9.96,59.96,10.15,91.13.43,72.6-19.27,131.21-54.88,193.42-21.84,38.16-49.05,68.59-81.58,98.39l-39.06,34.53c-25.34,20.22-66.81,14.02-82.79-15.49l-79.12-146.06-28.1-51.86-57.99-106.93c-5.11-9.43-16.84-11.8-26.23-10.55-10.37,1.37-15.17,8.55-20.63,18.17l-79.07,139.29-50.52,88.77-32.21,56.67-50.98,89.61-28.28,49.59-111.4-.18,33-58.08,32.63-57.21ZM806.48,619.16l-327.91-.08c-12.87,0-21.5,13.4-22.28,23.49-.45,12.31,5.64,22.57,18.02,26.71l304.33-.07,27.84-50.05ZM837.83,551.35c12.81-2.65,19.26-12.37,19.55-24.39.33-14-9.05-25.83-24.02-25.82l-189.28.21c-7.39,0-22.3,12.21-17.29,33.74,2.6,11.18,14.03,16.54,24.49,16.5l15.62-.06,134.43-.07c12.48,0,25.02,2.26,36.5-.12ZM735.42,758.57c.46-7.72-6.41-21.14-17.22-21.17l-135.41-.31c-11.87-.03-20.45,10.8-21.5,20.17-.73,11.42,4.35,21.03,15.43,25.2l142.65.05c10.91-4.34,17.18-12.91,16.05-23.94ZM585.39,530.29c.62-10.72-1.9-21.32-10.65-27.26-14.68-9.96-36.03-5.26-42.88,10.6-4.25,9.82-3.66,18.64,1.42,27.81,3.55,6.39,10.78,11.84,20.95,12.88,16.17,1.64,30.26-8.52,31.16-24.02ZM415.13,648.25c1.58-12.04-4.94-24.35-16.25-29.04-15.87-6.58-34.6.13-39.49,16.21-3.17,10.42-1.3,20.45,4.99,27.89,5.86,6.93,15.4,9.74,26.21,8.9,13.96-1.08,22.97-11.97,24.54-23.96ZM516.22,736.2c-9.37-2.31-19.52.6-25.4,7.93-6.86,8.55-7.91,19.24-2.88,28.12,4.71,8.33,13.87,12.47,24.3,12.1,13.58-.48,24.82-12.84,22.47-29.39-1.43-10.08-10.04-16.68-18.49-18.76Z"/>
  <path class="cls-3" d="M759.97,1563.3l-17.74-.62.6-8.41,27.36-.81.28,27.66c-11.32,8.73-25.41,11.65-39.32,7.35-14.08-4.36-21.94-18.52-21.2-33.01.63-12.35,6.13-22.6,17.3-28.47,12.42-6.52,28.99-4.24,40.01,4.22.76,2.33-2.1,7.41-4.27,7.96-4.24,1.07-15.44-10.99-30.29-3.63-7.24,3.59-11.3,11.42-12.03,18.3-.83,7.73,1.95,16.73,8.2,21.93,9.13,7.6,21.95,6.44,31.11-.6v-11.86Z"/>
  <path class="cls-3" d="M884.95,1561.16c-1.11,5.74-1.2,11.45-.45,18.78l35.63-.24c1.89.88,2.11,5.44,1.1,9.08l-47.42.07.39-16.73.23-32.32.92-15.78,45.67.11.09,9.6-36.67-.43c-1.04,5.89-.85,12.47,1.38,18.96l30.55-1.14.98,10.18-32.41-.14Z"/>
  <path class="cls-3" d="M1214.11,1580.3c5.37-.72,11.43-5.49,16.22-7.65,2.15-.97,7.27,4.36,6.43,6.8-13.41,14.68-38.36,14.95-51.23-1.27-9.33-11.76-9.12-30.79-.03-42.72,12.06-15.83,37.66-16.33,50.84-1.54,1.4,2.62-5.87,7.68-8.54,5.39-4.89-4.18-10.12-5.97-16.2-6.01-13.2-.08-22.01,9.1-22.29,22.19-.28,13.12,8.86,26.94,24.81,24.81Z"/>
  <path class="cls-3" d="M1365.18,1553.82c-4.49,6.73-7.12,11.97-7.12,19.92v16.16s-9.88-.13-9.88-.13l-.32-26.58-14.71-20.67-11.13-18.3,11.73.32,19.83,29.33,16.53-25.28c1.16-1.78,3.25-4.38,4.93-4.67,2.2-.38,6.61.46,8.85,1.86l-18.72,28.03Z"/>
  <rect class="cls-4" x="1677.07" y="1419.47" width="112.82" height="28.18"/>
  <rect class="cls-2" x="1676.81" y="1363.8" width="112.82" height="28.18"/>
</svg>