<svg xmlns="http://www.w3.org/2000/svg" viewBox="0 0 1920 1920" role="img" aria-label="Digitalise Agency">
  <!-- The Digitalise Agency mark. The path below is byte-identical to
       "DA CORE/Logos/Dark No Text - DA Logo.svg", the brand original, and to the
       icon digitalise.agency itself serves, so the agency build, the main agency
       site and the brand folder all show the same tab icon. Personal-site builds
       never load this file; build-agency.py copies it over assets/favicon.svg. -->
  <defs>
    <linearGradient id="damark" x1="398.52" y1="1674.22" x2="1525.23" y2="267.09" gradientUnits="userSpaceOnUse">
      <stop offset="0" stop-color="#136bee"/>
      <stop offset=".06" stop-color="#1d71ee"/>
      <stop offset=".17" stop-color="#3a83f0"/>
      <stop offset=".31" stop-color="#69a0f4"/>
      <stop offset=".47" stop-color="#a9c9f8"/>
      <stop offset=".66" stop-color="#fbfcfe"/>
      <stop offset=".67" stop-color="#fff"/>
    </linearGradient>
  </defs>
  <rect width="1920" height="1920" rx="420" fill="#05070d"/>
  <g transform="translate(288 288) scale(0.7)">
    <path fill="url(#damark)" d="M612.54,1431.42l170.49-301.04,65.13-115.3,121.29-216.93c17.92-32.06,49.08-53.29,83.31-65.24,46.39-16.19,97.72-8.19,139.29,16.19,15.15,8.88,26.01,20.38,37.21,32.8,11.72,12.98,19.59,26.28,27.98,41.64l46.63,85.29,24.25,42.98,44.92,80.06,77.25,138.5,42.78,77.2,13.87-15.03,22.93-25.6c40.42-45.13,67.36-100.22,87.69-157.64,51.11-144.39-7.47-327.74-111.92-435.65-35.2-36.37-74.34-66.95-119.92-89.46-54.56-26.95-113.53-49.22-176.24-49.38l-647.45-1.68c-38.24-8.81-65.12-40.7-66.29-80.59-2.81-44.78,29.9-89.88,78.66-89.87l630.81.17c113.22.03,222.58,37.55,317.35,97.25,78.3,49.32,142.98,116.44,190.2,195.37,35.22,58.87,56.85,121.12,72.28,187.42,11.11,47.7,15.64,94.11,15.93,143.03.68,113.95-30.24,205.94-86.14,303.58-34.28,59.89-76.99,107.65-128.04,154.42l-61.3,54.2c-39.77,31.73-104.85,22-129.94-24.31l-124.18-229.25-44.1-81.39-91.02-167.84c-8.02-14.8-26.44-18.52-41.18-16.56-16.28,2.16-23.81,13.42-32.38,28.51l-124.1,218.62-79.29,139.34-50.56,88.95-80.02,140.65-44.38,77.83-174.84-.28,51.8-91.16,51.22-89.8ZM829.11,782.33l-514.67-.13c-20.2,0-33.74,21.04-34.97,36.87-.71,19.33,8.86,35.43,28.28,41.92l477.66-.11,43.7-78.55ZM878.32,675.88c20.11-4.16,30.23-19.42,30.68-38.28.53-21.98-14.21-40.55-37.7-40.52l-297.09.34c-11.6.01-35,19.16-27.14,52.96,4.08,17.54,22.03,25.96,38.44,25.9l24.52-.09,211-.12c19.59-.01,39.27,3.54,57.29-.18ZM717.59,1001.14c.73-12.12-10.07-33.19-27.03-33.23l-212.53-.48c-18.63-.04-32.1,16.96-33.75,31.65-1.14,17.92,6.83,33.01,24.21,39.56l223.9.08c17.12-6.82,26.97-20.26,25.2-37.58ZM482.11,642.84c.98-16.82-2.99-33.47-16.71-42.78-23.04-15.64-56.55-8.26-67.31,16.63-6.66,15.42-5.75,29.25,2.23,43.64,5.56,10.04,16.92,18.59,32.89,20.21,25.39,2.58,47.49-13.37,48.9-37.7ZM214.87,827.98c2.48-18.9-7.75-38.22-25.5-45.58-24.92-10.33-54.31.21-61.99,25.45-4.98,16.36-2.04,32.1,7.84,43.78,9.2,10.88,24.17,15.29,41.14,13.97,21.91-1.7,36.05-18.79,38.51-37.61ZM373.54,966.03c-14.71-3.62-30.64.95-39.87,12.45-10.76,13.41-12.41,30.19-4.53,44.13,7.4,13.07,21.77,19.57,38.14,18.99,21.32-.75,38.96-20.15,35.27-46.13-2.25-15.82-15.75-26.18-29.01-29.44Z"/>
  </g>
</svg>
